<?xml version="1.0" encoding="utf-8"?>
<!-- Generator: Adobe Illustrator 24.0.1, SVG Export Plug-In . SVG Version: 6.00 Build 0)  -->
<svg version="1.1" id="Layer_1" xmlns="http://www.w3.org/2000/svg" xmlns:xlink="http://www.w3.org/1999/xlink" x="0px" y="0px"
	 viewBox="0 0 200 200" enable-background="new 0 0 200 200" xml:space="preserve">
<g>
	<g>
		<linearGradient id="SVGID_1_" gradientUnits="userSpaceOnUse" x1="57.7872" y1="65.0463" x2="123.8621" y2="131.1211">
			<stop  offset="0.516" style="stop-color:#1B75BB"/>
			<stop  offset="1" style="stop-color:#395474"/>
		</linearGradient>
		<path fill="url(#SVGID_1_)" d="M89.03,50.23c-1.36-0.53-3.78-1.48-3.96-1.54c-8.74-3.13-12.97,1.97-13.46,2.61
			c-0.71,1.19-5.85,9.84-12.37,21.85c-0.05,0.1-0.26,0.48-0.47,0.87l20.51,58.11c0,0,4.35,7.06,12.19,7.06c2.82,0,21.53,0,21.53,0
			c5.06,0,6.37-3.27,4.26-8.97C117.26,130.22,89.06,50.25,89.03,50.23z"/>
		<linearGradient id="SVGID_2_" gradientUnits="userSpaceOnUse" x1="133.5746" y1="68.2517" x2="98.3771" y2="7.2878">
			<stop  offset="0.2719" style="stop-color:#1B75BB"/>
			<stop  offset="1" style="stop-color:#395474"/>
		</linearGradient>
		<path fill="url(#SVGID_2_)" d="M115.41,73.6c3.52,1.02,6.81,0.82,9.82-0.59c2.24-1.05,3.66-2.48,4.11-2.96
			c0.87-1.49,4.82-8.29,9.98-17.85c0.14-0.26,0.94-1.85,1.55-3.04l-10.65-30.13c-3.6-9.76-10.59-9.02-10.59-9.02H95.23
			c-2.07,0-5.93,1.01-4.3,7.25l19.21,54.43C112.11,72.41,115.06,73.5,115.41,73.6z"/>
		<g>
			<linearGradient id="SVGID_3_" gradientUnits="userSpaceOnUse" x1="55.1483" y1="90.0319" x2="20.6214" y2="30.2296">
				<stop  offset="0.0801" style="stop-color:#1B75BB"/>
				<stop  offset="1" style="stop-color:#395474"/>
			</linearGradient>
			<path fill="url(#SVGID_3_)" d="M7.28,110.44c0,0,30.04-3.26,37.89-18.95c11.56-23.11,23.11-42.38,23.11-42.38s6.16-8.97,19-3.84
				L76.96,16.03c-2.82-2.67-7.85-5.81-15.74-5.44c-13.48,0.64-17.98,8.35-17.98,8.35L2.57,101.45
				C-1.27,108.41,2.17,111.59,7.28,110.44z"/>
		</g>
		<linearGradient id="SVGID_4_" gradientUnits="userSpaceOnUse" x1="115.4028" y1="72.9667" x2="174.8176" y2="132.3814">
			<stop  offset="0.2702" style="stop-color:#1B75BB"/>
			<stop  offset="1" style="stop-color:#395474"/>
		</linearGradient>
		<path fill="url(#SVGID_4_)" d="M132.5,84.36c-6.47,5.28-20.64-7.85-20.64-7.85l19.63,55.62c0,0,4.35,7.06,12.19,7.06
			c2.82,0,21.53,0,21.53,0c5.06,0,6.37-3.27,4.26-8.97c0,0-18.09-51.32-25.31-71.75C142.37,53.4,140.54,77.8,132.5,84.36z"/>
		<g>
			
				<linearGradient id="SVGID_5_" gradientUnits="userSpaceOnUse" x1="316.4844" y1="27.9803" x2="232.8993" y2="110.1911" gradientTransform="matrix(-1 8.289502e-03 -8.289502e-03 -1 437.0418 126.7895)">
				<stop  offset="0.2008" style="stop-color:#1B75BB"/>
				<stop  offset="1" style="stop-color:#395474"/>
			</linearGradient>
			<path fill="url(#SVGID_5_)" d="M188.24,10.86c0,0-0.05,0-0.07,0.01c-11.2,1.13-26.15,5.3-32.82,18.93
				c-4.49,9.17-8.99,17.74-12.78,24.75c-5.81,10.74-9.98,17.82-9.98,17.82s-7.24,9.18-19.85,4.53c-0.14-0.05-0.88-0.38-0.88-0.38
				l8.07,22.87c0,0,1.54,2.5,1.75,2.83c1.28,2.02,6.69,9.28,18.3,8.63c13.48-0.75,17.91-8.5,17.91-8.5l40.01-82.89
				C197.88,19.45,202.52,9.29,188.24,10.86z"/>
		</g>
	</g>
	<g>
		<g>
			<g>
				<path fill="#2574B8" d="M16.03,159.63c0.64,0,1.23,0.19,1.78,0.57c0.86,0.57,1.44,1.41,1.73,2.51c0.1,0.42,0.14,0.84,0.14,1.26
					c0,0.61-0.11,1.2-0.34,1.77L9.26,187.22c-0.32,0.69-0.77,1.24-1.34,1.66c-0.58,0.42-1.2,0.63-1.87,0.63
					c-1.02,0-1.89-0.44-2.59-1.31c-0.67-0.84-1.01-1.83-1.01-2.97c0-0.72,0.14-1.41,0.43-2.06L13,161.69
					c0.64-1.33,1.62-2.02,2.93-2.06C15.96,159.63,15.99,159.63,16.03,159.63z M21.98,149.75c0.38,0.15,0.72,0.36,1.01,0.63
					c0.45,0.42,0.8,0.91,1.06,1.49l14.69,31.3c0.32,0.65,0.48,1.33,0.48,2.06c0,1.18-0.37,2.21-1.1,3.08c-0.7,0.8-1.54,1.2-2.5,1.2
					c-0.67,0-1.3-0.21-1.87-0.63c-0.58-0.42-1.02-0.97-1.34-1.66l-12.24-25.99c-0.22-0.46-0.5-0.88-0.82-1.26
					c-0.29-0.34-0.61-0.63-0.96-0.86c-0.03-0.04-0.06-0.08-0.1-0.11c-0.58-0.34-1.17-0.55-1.78-0.63c-0.16,0-0.32,0-0.48,0
					c-0.58,0-1.12,0.11-1.63,0.34l3.17-6.8c0.29-0.69,0.7-1.24,1.25-1.66c0.61-0.49,1.28-0.74,2.02-0.74
					C21.24,149.52,21.62,149.6,21.98,149.75z"/>
				<path fill="#2574B8" d="M51.83,149.52c-0.45,0.5-0.82,1.07-1.1,1.71c-0.35,0.8-0.53,1.66-0.53,2.57v4.28v22.85h5.62
					c0.9,0,1.78-0.15,2.64-0.46c-0.29,0.76-0.43,1.54-0.43,2.34c0,0.95,0.18,1.85,0.53,2.69c0.29,0.57,0.64,1.09,1.06,1.54
					c0.54,0.61,1.18,1.03,1.92,1.26c-0.9,0.38-1.79,0.67-2.69,0.86c-0.93,0.23-1.87,0.34-2.83,0.34c-0.03,0-0.07,0-0.12,0
					c-0.05,0-0.09,0-0.12,0H46.6c-1.02,0-1.89-0.42-2.59-1.26c-0.67-0.84-1.01-1.85-1.01-3.03v-0.11v-31.3v-0.06
					c0-1.03,0.29-1.94,0.86-2.74c0.7-0.99,1.6-1.49,2.69-1.49h0.05H51.83z M55.72,149.52c0.13,0,0.37,0,0.72,0
					c2.94,0.15,5.65,1.13,8.11,2.94c2.46,1.81,4.42,4.22,5.86,7.23c1.44,3.01,2.16,6.28,2.16,9.82c0,3.62-0.75,6.96-2.26,10.03
					c-1.5,3.07-3.52,5.47-6.05,7.23c-0.48,0.31-1.93,1.16-2.74,1.54c-0.17,0.08-1.18,0.16-2.12-0.38c-1.98-1.14-4.55-3.48-4.53-3.64
					c0.16-1.1,2.43-2.98,3.13-3.66c0.93-0.26,1.93-0.79,2.6-1.23c1.48-0.97,2.59-2.42,3.46-4.17c0.86-1.75,1.3-3.66,1.3-5.71
					c0-3.12-0.91-5.79-2.74-8c-1.82-2.21-4.05-3.35-6.67-3.43c-0.13,0-0.24,0-0.34,0h-0.86c-0.99-0.04-4.64,0.03-5.32,0.18
					c-1.03,0.22-1.02-3.59-1.02-4.73c0-0.95,0.22-2.37,0.67-3.13c0.7-1.1,1.59-0.84,2.74-0.88H55.72z"/>
				<path fill="#2574B8" d="M102.37,149.52c1.06,0,1.94,0.48,2.64,1.43c0.61,0.8,0.91,1.75,0.91,2.86v21.93
					c-0.48-0.65-1.06-1.14-1.73-1.48c-0.58-0.3-1.2-0.46-1.87-0.46h-0.05h-3.55H83.55v11.37v0.06c0,1.14-0.32,2.11-0.96,2.91
					c-0.7,0.91-1.58,1.37-2.64,1.37c-0.99,0-1.86-0.42-2.59-1.26c-0.67-0.84-1.01-1.85-1.01-3.03v-0.11v-21.82
					c0.35,0.5,0.77,0.9,1.25,1.2c0.67,0.46,1.39,0.71,2.16,0.74c0.1,0,0.21,0,0.34,0h3.46h15.17v-11.42v-0.06
					c0-1.03,0.29-1.94,0.86-2.74c0.7-0.99,1.6-1.49,2.69-1.49H102.37z M80,149.52c1.06,0,1.94,0.48,2.64,1.43
					c0.61,0.8,0.91,1.75,0.91,2.86v6c0,1.07-0.3,1.98-0.91,2.74c-0.74,0.91-1.63,1.37-2.69,1.37c-0.96,0-1.78-0.36-2.45-1.09
					c-0.74-0.8-1.12-1.79-1.15-2.97v-6.05v-0.06c0-1.03,0.29-1.94,0.86-2.74c0.7-0.99,1.6-1.49,2.69-1.49H80z M104.86,176.37
					c0.67,0.8,1.02,1.75,1.06,2.86v5.94v0.06c0,1.14-0.32,2.11-0.96,2.91c-0.7,0.91-1.58,1.37-2.64,1.37
					c-1.02,0-1.89-0.42-2.59-1.26c-0.67-0.84-1.01-1.85-1.01-3.03v-0.11v-5.88c0-1.18,0.37-2.17,1.1-2.97
					c0.7-0.76,1.54-1.14,2.5-1.14C103.31,175.11,104.16,175.53,104.86,176.37z"/>
				<path fill="#2574B8" d="M138.22,150.78c0.7,0.84,1.06,1.85,1.06,3.03c0,0.53-0.08,1.05-0.24,1.54
					c-0.13,0.38-0.45,0.93-0.96,1.66l-9.45,13.37c-0.1,0.15-0.23,0.34-0.41,0.57c-0.18,0.23-0.3,0.4-0.36,0.51
					c-0.35,0.5-0.64,0.89-0.86,1.2c-0.29,0.31-0.62,0.57-1.01,0.8c-0.48,0.27-0.98,0.4-1.49,0.4c-0.9,0-1.68-0.36-2.35-1.09
					c-0.16-0.15-0.43-0.49-0.82-1.03l-10.42-14.68c-0.51-0.76-0.83-1.31-0.96-1.66c-0.16-0.53-0.24-1.07-0.24-1.6
					c0-1.18,0.35-2.19,1.06-3.03c0.7-0.84,1.55-1.26,2.54-1.26c0.67,0,1.3,0.21,1.87,0.63c0.42,0.31,0.88,0.86,1.39,1.66l7.92,11.14
					l7.92-11.2c0.51-0.8,0.98-1.35,1.39-1.66c0.58-0.38,1.2-0.57,1.87-0.57C136.67,149.52,137.52,149.94,138.22,150.78z
					 M124.45,173.12c1.22-0.04,2.43-0.84,3.65-2.18v14.23v0.06c0,1.11-0.32,2.08-0.96,2.91c-0.7,0.91-1.58,1.37-2.64,1.37
					c-1.02,0-1.89-0.44-2.59-1.31c-0.67-0.8-1.01-1.79-1.01-2.97v-0.11v-14.08C122.08,172.37,123.26,173.08,124.45,173.12z"/>
				<path fill="#2574B8" d="M146.09,159.63c0.64,0,1.23,0.19,1.78,0.57c0.86,0.57,1.44,1.41,1.73,2.51c0.1,0.42,0.14,0.84,0.14,1.26
					c0,0.61-0.11,1.2-0.34,1.77l-10.08,21.48c-0.32,0.69-0.77,1.24-1.34,1.66c-0.58,0.42-1.2,0.63-1.87,0.63
					c-1.02,0-1.89-0.44-2.59-1.31c-0.67-0.84-1.01-1.83-1.01-2.97c0-0.72,0.14-1.41,0.43-2.06l10.13-21.48
					c0.64-1.33,1.62-2.02,2.93-2.06C146.03,159.63,146.06,159.63,146.09,159.63z M152.04,149.75c0.38,0.15,0.72,0.36,1.01,0.63
					c0.45,0.42,0.8,0.91,1.06,1.49l14.69,31.3c0.32,0.65,0.48,1.33,0.48,2.06c0,1.18-0.37,2.21-1.1,3.08c-0.7,0.8-1.54,1.2-2.5,1.2
					c-0.67,0-1.3-0.21-1.87-0.63c-0.58-0.42-1.02-0.97-1.34-1.66l-12.24-25.99c-0.22-0.46-0.5-0.88-0.82-1.26
					c-0.29-0.34-0.61-0.63-0.96-0.86c-0.03-0.04-0.06-0.08-0.1-0.11c-0.58-0.34-1.17-0.55-1.78-0.63c-0.16,0-0.32,0-0.48,0
					c-0.58,0-1.12,0.11-1.63,0.34l3.17-6.8c0.29-0.69,0.7-1.24,1.25-1.66c0.61-0.49,1.28-0.74,2.02-0.74
					C151.31,149.52,151.69,149.6,152.04,149.75z"/>
				<path fill="#2574B8" d="M191.02,150.78c0.7,0.84,1.06,1.85,1.06,3.03c0,0.53-0.08,1.05-0.24,1.54
					c-0.13,0.38-0.45,0.93-0.96,1.66l-9.45,13.37c-0.1,0.15-0.23,0.34-0.41,0.57c-0.18,0.23-0.3,0.4-0.36,0.51
					c-0.35,0.5-0.64,0.89-0.86,1.2c-0.29,0.31-0.62,0.57-1.01,0.8c-0.48,0.27-0.98,0.4-1.49,0.4c-0.9,0-1.68-0.36-2.35-1.09
					c-0.16-0.15-0.43-0.49-0.82-1.03l-10.42-14.68c-0.51-0.76-0.83-1.31-0.96-1.66c-0.16-0.53-0.24-1.07-0.24-1.6
					c0-1.18,0.35-2.19,1.06-3.03c0.7-0.84,1.55-1.26,2.54-1.26c0.67,0,1.3,0.21,1.87,0.63c0.42,0.31,0.88,0.86,1.39,1.66l7.92,11.14
					l7.92-11.2c0.51-0.8,0.98-1.35,1.39-1.66c0.58-0.38,1.2-0.57,1.87-0.57C189.46,149.52,190.31,149.94,191.02,150.78z
					 M177.24,170.94c1.22-0.04,2.43-0.09,3.65-1.43v15.65v0.06c0,1.11-0.32,2.08-0.96,2.91c-0.7,0.91-1.58,1.37-2.64,1.37
					c-1.02,0-1.89-0.44-2.59-1.31c-0.67-0.8-1.01-1.79-1.01-2.97v-0.11v-15.59C174.87,170.85,176.06,170.91,177.24,170.94z"/>
			</g>
			<circle fill="#2574B8" cx="194.6" cy="185.63" r="4.02"/>
		</g>
	</g>
</g>
</svg>
